<?xml version="1.0" encoding="UTF-8" standalone="no"?>
<!DOCTYPE svg PUBLIC "-//W3C//DTD SVG 1.1//EN" "http://www.w3.org/Graphics/SVG/1.1/DTD/svg11.dtd">
<svg width="100%" height="100%" viewBox="0 0 100 100" version="1.1" xmlns="http://www.w3.org/2000/svg" xmlns:xlink="http://www.w3.org/1999/xlink" xml:space="preserve" xmlns:serif="http://www.serif.com/" style="fill-rule:evenodd;clip-rule:evenodd;stroke-linejoin:round;stroke-miterlimit:2;">
    <g>
        <g transform="matrix(1,0,0,1,7.35681,0)">
            <path d="M1.625,59.264C1.708,59.574 1.786,59.883 1.875,60.192C1.785,59.883 1.708,59.573 1.625,59.264Z" style="fill:none;fill-rule:nonzero;"/>
        </g>
        <g transform="matrix(1,0,0,1,7.35681,0)">
            <path d="M1.17,57.433C1.218,57.647 1.259,57.862 1.31,58.076C1.259,57.861 1.219,57.646 1.17,57.433Z" style="fill:none;fill-rule:nonzero;"/>
        </g>
        <g transform="matrix(1,0,0,1,7.35681,0)">
            <path d="M47.019,23.512C53.036,23.512 59.053,25.807 63.644,30.398C59.052,25.807 53.036,23.511 47.019,23.512Z" style="fill:none;fill-rule:nonzero;"/>
        </g>
        <g transform="matrix(1,0,0,1,7.35681,0)">
            <path d="M0.507,53.925C0.53,54.083 0.562,54.24 0.587,54.398C0.562,54.24 0.53,54.083 0.507,53.925Z" style="fill:none;fill-rule:nonzero;"/>
        </g>
        <g transform="matrix(1,0,0,1,7.35681,0)">
            <path d="M0.242,51.773C0.269,52.043 0.306,52.311 0.339,52.581C0.306,52.312 0.269,52.043 0.242,51.773Z" style="fill:none;fill-rule:nonzero;"/>
        </g>
        <g transform="matrix(1,0,0,1,7.35681,0)">
            <path d="M2.922,63.346C3.047,63.683 3.171,64.021 3.303,64.356C3.171,64.021 3.047,63.683 2.922,63.346Z" style="fill:none;fill-rule:nonzero;"/>
        </g>
        <g transform="matrix(1,0,0,1,7.35681,0)">
            <path d="M5.637,69.357C5.822,69.7 6.013,70.04 6.207,70.378C6.013,70.04 5.822,69.699 5.637,69.357Z" style="fill:none;fill-rule:nonzero;"/>
        </g>
        <g transform="matrix(1,0,0,1,7.35681,0)">
            <path d="M4.631,67.382C4.796,67.725 4.963,68.065 5.136,68.403C4.963,68.064 4.796,67.725 4.631,67.382Z" style="fill:none;fill-rule:nonzero;"/>
        </g>
        <g transform="matrix(1,0,0,1,7.35681,0)">
            <path d="M2.22,61.298C2.324,61.628 2.426,61.958 2.538,62.285C2.426,61.958 2.325,61.628 2.22,61.298Z" style="fill:none;fill-rule:nonzero;"/>
        </g>
        <g transform="matrix(1,0,0,1,7.35681,0)">
            <path d="M3.726,65.375C3.871,65.717 4.017,66.058 4.17,66.396C4.017,66.058 3.871,65.717 3.726,65.375Z" style="fill:none;fill-rule:nonzero;"/>
        </g>
        <g transform="matrix(1,0,0,1,7.35681,0)">
            <path d="M6.742,71.292C6.95,71.637 7.165,71.978 7.383,72.317C7.166,71.978 6.95,71.637 6.742,71.292Z" style="fill:none;fill-rule:nonzero;"/>
        </g>
        <g transform="matrix(1,0,0,1,7.35681,0)">
            <path d="M26.253,35.995C26.2,36.095 26.152,36.197 26.1,36.298C26.152,36.197 26.2,36.095 26.253,35.995Z" style="fill:none;fill-rule:nonzero;"/>
        </g>
        <g transform="matrix(1,0,0,1,7.35681,0)">
            <path d="M28.922,32.025C28.851,32.111 28.776,32.196 28.706,32.283C28.777,32.196 28.851,32.111 28.922,32.025Z" style="fill:none;fill-rule:nonzero;"/>
        </g>
        <g transform="matrix(1,0,0,1,7.35681,0)">
            <path d="M27.496,33.929C27.42,34.042 27.346,34.157 27.272,34.27C27.346,34.156 27.42,34.042 27.496,33.929Z" style="fill:none;fill-rule:nonzero;"/>
        </g>
        <g transform="matrix(1,0,0,1,7.35681,0)">
            <path d="M23.515,47.184C23.514,47 23.523,46.816 23.526,46.631C23.523,46.815 23.514,47 23.515,47.184Z" style="fill:none;fill-rule:nonzero;"/>
        </g>
        <g transform="matrix(1,0,0,1,7.35681,0)">
            <path d="M25.307,38.008C25.275,38.084 25.239,38.158 25.208,38.236C25.239,38.158 25.275,38.084 25.307,38.008Z" style="fill:none;fill-rule:nonzero;"/>
        </g>
        <g transform="matrix(1,0,0,1,7.35681,0)">
            <path d="M23.597,48.903C23.615,49.127 23.634,49.348 23.658,49.571C23.634,49.349 23.615,49.126 23.597,48.903Z" style="fill:none;fill-rule:nonzero;"/>
        </g>
        <g transform="matrix(1,0,0,1,7.35681,0)">
            <path d="M23.636,44.624C23.619,44.795 23.611,44.967 23.597,45.139C23.611,44.967 23.619,44.795 23.636,44.624Z" style="fill:none;fill-rule:nonzero;"/>
        </g>
        <g transform="matrix(1,0,0,1,7.35681,0)">
            <path d="M23.997,42.292C23.959,42.478 23.926,42.663 23.893,42.85C23.925,42.663 23.958,42.478 23.997,42.292Z" style="fill:none;fill-rule:nonzero;"/>
        </g>
        <g transform="matrix(1,0,0,1,7.35681,0)">
            <path d="M24.572,40.053C24.523,40.211 24.473,40.368 24.427,40.528C24.473,40.368 24.523,40.211 24.572,40.053Z" style="fill:none;fill-rule:nonzero;"/>
        </g>
        <g transform="matrix(1,0,0,1,7.35681,0)">
            <path d="M12.167,78.587C12.645,79.113 13.138,79.631 13.644,80.14C13.138,79.631 12.645,79.113 12.167,78.587Z" style="fill:none;fill-rule:nonzero;"/>
        </g>
        <g transform="matrix(1,0,0,1,7.35681,0)">
            <path d="M43.124,93.873C43.48,93.902 43.836,93.928 44.193,93.949C43.836,93.928 43.48,93.902 43.124,93.873Z" style="fill:none;fill-rule:nonzero;"/>
        </g>
        <g transform="matrix(1,0,0,1,7.35681,0)">
            <path d="M45.29,94.003C45.637,94.016 45.984,94.023 46.332,94.027C45.984,94.022 45.637,94.016 45.29,94.003Z" style="fill:none;fill-rule:nonzero;"/>
        </g>
        <g transform="matrix(1,0,0,1,7.35681,0)">
            <path d="M49.614,93.966C49.934,93.948 50.254,93.921 50.574,93.898C50.253,93.921 49.934,93.948 49.614,93.966Z" style="fill:none;fill-rule:nonzero;"/>
        </g>
        <g transform="matrix(1,0,0,1,7.35681,0)">
            <path d="M36.575,92.863C36.983,92.956 37.391,93.05 37.801,93.131C37.391,93.05 36.983,92.956 36.575,92.863Z" style="fill:none;fill-rule:nonzero;"/>
        </g>
        <g transform="matrix(1,0,0,1,7.35681,0)">
            <path d="M40.955,93.642C41.322,93.69 41.689,93.736 42.057,93.775C41.689,93.735 41.322,93.689 40.955,93.642Z" style="fill:none;fill-rule:nonzero;"/>
        </g>
        <g transform="matrix(1,0,0,1,7.35681,0)">
            <path d="M7.948,73.188C8.18,73.534 8.422,73.876 8.664,74.216C8.422,73.876 8.18,73.534 7.948,73.188Z" style="fill:none;fill-rule:nonzero;"/>
        </g>
        <g transform="matrix(1,0,0,1,7.35681,0)">
            <path d="M38.781,93.309C39.161,93.376 39.542,93.444 39.924,93.502C39.542,93.443 39.161,93.376 38.781,93.309Z" style="fill:none;fill-rule:nonzero;"/>
        </g>
        <g transform="matrix(1,0,0,1,7.35681,0)">
            <path d="M69.338,88.412C69.558,88.293 69.775,88.169 69.993,88.047C69.775,88.169 69.558,88.293 69.338,88.412Z" style="fill:none;fill-rule:nonzero;"/>
        </g>
        <g transform="matrix(1,0,0,1,7.35681,0)">
            <path d="M67.385,89.406C67.624,89.291 67.861,89.173 68.098,89.053C67.861,89.173 67.624,89.291 67.385,89.406Z" style="fill:none;fill-rule:nonzero;"/>
        </g>
        <g transform="matrix(1,0,0,1,7.35681,0)">
            <path d="M61.358,91.8C61.614,91.719 61.87,91.639 62.125,91.553C61.87,91.639 61.614,91.719 61.358,91.8Z" style="fill:none;fill-rule:nonzero;"/>
        </g>
        <g transform="matrix(1,0,0,1,7.35681,0)">
            <path d="M63.389,91.101C63.644,91.006 63.898,90.912 64.152,90.813C63.898,90.911 63.644,91.006 63.389,91.101Z" style="fill:none;fill-rule:nonzero;"/>
        </g>
        <g transform="matrix(1,0,0,1,7.35681,0)">
            <path d="M59.332,92.397C59.578,92.331 59.824,92.268 60.069,92.198C59.824,92.269 59.577,92.331 59.332,92.397Z" style="fill:none;fill-rule:nonzero;"/>
        </g>
        <g transform="matrix(1,0,0,1,7.35681,0)">
            <path d="M51.767,93.8C52.05,93.772 52.332,93.733 52.614,93.698C52.332,93.732 52.049,93.771 51.767,93.8Z" style="fill:none;fill-rule:nonzero;"/>
        </g>
        <g transform="matrix(1,0,0,1,7.35681,0)">
            <path d="M34.12,92.239C34.642,92.387 35.165,92.533 35.691,92.663C35.165,92.533 34.642,92.388 34.12,92.239Z" style="fill:none;fill-rule:nonzero;"/>
        </g>
        <g transform="matrix(1,0,0,1,7.35681,0)">
            <path d="M57.413,92.874C57.604,92.831 57.796,92.794 57.987,92.748C57.796,92.794 57.604,92.831 57.413,92.874Z" style="fill:none;fill-rule:nonzero;"/>
        </g>
        <g transform="matrix(1,0,0,1,7.35681,0)">
            <path d="M27.484,89.802C27.883,89.984 28.285,90.155 28.688,90.324C28.286,90.154 27.883,89.983 27.484,89.802Z" style="fill:none;fill-rule:nonzero;"/>
        </g>
        <g transform="matrix(1,0,0,1,7.35681,0)">
            <path d="M16.044,82.387C16.42,82.717 16.797,83.047 17.181,83.363C16.797,83.047 16.42,82.717 16.044,82.387Z" style="fill:none;fill-rule:nonzero;"/>
        </g>
        <g transform="matrix(1,0,0,1,7.35681,0)">
            <path d="M13.873,80.37C14.388,80.882 14.911,81.38 15.443,81.862C14.911,81.38 14.388,80.882 13.873,80.37Z" style="fill:none;fill-rule:nonzero;"/>
        </g>
        <g transform="matrix(1,0,0,1,7.35681,0)">
            <path d="M31.554,91.438C32.232,91.673 32.914,91.894 33.601,92.098C32.914,91.894 32.232,91.673 31.554,91.438Z" style="fill:none;fill-rule:nonzero;"/>
        </g>
        <g transform="matrix(1,0,0,1,7.35681,0)">
            <path d="M10.661,76.84C10.971,77.217 11.296,77.586 11.62,77.956C11.295,77.586 10.971,77.217 10.661,76.84Z" style="fill:none;fill-rule:nonzero;"/>
        </g>
        <g transform="matrix(1,0,0,1,7.35681,0)">
            <path d="M9.254,75.039C9.517,75.393 9.792,75.739 10.066,76.086C9.792,75.739 9.517,75.393 9.254,75.039Z" style="fill:none;fill-rule:nonzero;"/>
        </g>
        <g transform="matrix(1,0,0,1,7.35681,0)">
            <path d="M48.461,94.01C48.125,94.02 47.789,94.031 47.453,94.033C47.79,94.03 48.125,94.02 48.461,94.01Z" style="fill:none;fill-rule:nonzero;"/>
        </g>
        <g transform="matrix(1,0,0,1,7.35681,0)">
            <path d="M19.744,85.32C20.099,85.574 20.456,85.825 20.817,86.068C20.457,85.825 20.1,85.574 19.744,85.32Z" style="fill:none;fill-rule:nonzero;"/>
        </g>
        <g transform="matrix(1,0,0,1,7.35681,0)">
            <path d="M17.894,83.928C18.251,84.211 18.609,84.493 18.973,84.764C18.609,84.493 18.251,84.211 17.894,83.928Z" style="fill:none;fill-rule:nonzero;"/>
        </g>
        <g transform="matrix(1,0,0,1,7.35681,0)">
            <path d="M21.625,86.597C21.985,86.828 22.346,87.055 22.711,87.276C22.346,87.055 21.985,86.828 21.625,86.597Z" style="fill:none;fill-rule:nonzero;"/>
        </g>
        <g transform="matrix(1,0,0,1,7.35681,0)">
            <path d="M65.401,90.302C65.65,90.197 65.898,90.089 66.145,89.979C65.897,90.089 65.649,90.196 65.401,90.302Z" style="fill:none;fill-rule:nonzero;"/>
        </g>
        <g transform="matrix(1,0,0,1,7.35681,0)">
            <path d="M25.495,88.834C25.875,89.029 26.258,89.216 26.641,89.4C26.257,89.216 25.875,89.029 25.495,88.834Z" style="fill:none;fill-rule:nonzero;"/>
        </g>
        <g transform="matrix(1,0,0,1,7.35681,0)">
            <path d="M29.504,90.669C29.946,90.846 30.392,91.009 30.838,91.172C30.392,91.009 29.946,90.846 29.504,90.669Z" style="fill:none;fill-rule:nonzero;"/>
        </g>
        <g transform="matrix(1,0,0,1,7.35681,0)">
            <path d="M71.257,87.318C71.441,87.208 71.621,87.09 71.803,86.976C71.621,87.091 71.44,87.208 71.257,87.318Z" style="fill:none;fill-rule:nonzero;"/>
        </g>
        <g transform="matrix(1,0,0,1,7.35681,0)">
            <path d="M73.132,86.13C73.224,86.068 73.313,86.002 73.404,85.94C73.313,86.002 73.224,86.068 73.132,86.13Z" style="fill:none;fill-rule:nonzero;"/>
        </g>
        <g transform="matrix(1,0,0,1,7.35681,0)">
            <path d="M23.542,87.767C23.91,87.979 24.281,88.185 24.653,88.386C24.28,88.185 23.91,87.979 23.542,87.767Z" style="fill:none;fill-rule:nonzero;"/>
        </g>
        <g transform="matrix(1,0,0,1,7.35681,0)">
            <path d="M79.111,14.93L77.377,16.665L77.376,16.664L63.643,30.397C59.052,25.806 53.035,23.511 47.018,23.511C41.001,23.511 34.984,25.806 30.393,30.397C29.87,30.92 29.385,31.467 28.921,32.025C28.85,32.111 28.775,32.196 28.705,32.283C28.274,32.817 27.872,33.367 27.495,33.929C27.419,34.042 27.345,34.157 27.271,34.27C26.906,34.834 26.563,35.409 26.251,35.996C26.198,36.096 26.15,36.198 26.098,36.299C25.81,36.861 25.544,37.431 25.305,38.009C25.273,38.085 25.237,38.159 25.206,38.237C24.966,38.835 24.76,39.442 24.57,40.054C24.521,40.212 24.47,40.369 24.425,40.529C24.258,41.112 24.115,41.701 23.994,42.294C23.956,42.48 23.923,42.665 23.89,42.852C23.784,43.441 23.695,44.032 23.634,44.626C23.617,44.797 23.609,44.969 23.595,45.141C23.555,45.638 23.532,46.135 23.524,46.633C23.521,46.818 23.512,47.002 23.513,47.186C23.517,47.76 23.55,48.333 23.595,48.906C23.613,49.129 23.632,49.351 23.656,49.574C23.663,49.637 23.676,49.698 23.683,49.761C24.288,44.714 26.519,39.824 30.392,35.951C39.573,26.769 54.459,26.769 63.641,35.951L80.265,19.326L80.265,13.776L79.111,14.93Z" style="fill:rgb(113,9,10);fill-rule:nonzero;"/>
        </g>
        <g transform="matrix(1,0,0,1,7.35681,0)">
            <path d="M73.132,86.13C72.694,86.423 72.249,86.7 71.803,86.977C71.621,87.091 71.44,87.208 71.257,87.319C70.84,87.571 70.417,87.809 69.994,88.048C69.776,88.17 69.558,88.294 69.339,88.413C68.928,88.635 68.514,88.846 68.099,89.055C67.862,89.174 67.625,89.292 67.386,89.408C66.975,89.605 66.561,89.796 66.145,89.98C65.898,90.09 65.65,90.198 65.401,90.303C64.986,90.479 64.57,90.651 64.152,90.814C63.899,90.913 63.644,91.007 63.389,91.102C62.969,91.257 62.548,91.411 62.125,91.554C61.87,91.64 61.614,91.72 61.358,91.801C60.929,91.939 60.501,92.075 60.069,92.199C59.824,92.269 59.577,92.332 59.332,92.398C58.885,92.519 58.437,92.641 57.988,92.749C57.797,92.795 57.605,92.832 57.414,92.875C55.827,93.233 54.225,93.508 52.615,93.699C52.333,93.733 52.051,93.772 51.768,93.801C51.371,93.841 50.973,93.868 50.575,93.899C50.255,93.922 49.935,93.95 49.615,93.967C49.231,93.988 48.847,93.999 48.463,94.011C48.127,94.021 47.791,94.032 47.455,94.034C47.081,94.038 46.707,94.034 46.333,94.028C45.985,94.023 45.639,94.016 45.291,94.004C44.925,93.99 44.559,93.972 44.193,93.95C43.837,93.929 43.481,93.903 43.124,93.874C42.768,93.844 42.413,93.812 42.057,93.775C41.689,93.736 41.322,93.69 40.955,93.642C40.611,93.598 40.267,93.554 39.924,93.502C39.542,93.443 39.161,93.376 38.781,93.309C38.454,93.251 38.127,93.197 37.801,93.131C37.391,93.05 36.984,92.956 36.575,92.863C36.28,92.797 35.985,92.735 35.691,92.663C35.165,92.533 34.642,92.388 34.12,92.239C33.947,92.19 33.773,92.148 33.6,92.097C32.913,91.893 32.231,91.672 31.553,91.437C31.313,91.353 31.076,91.259 30.838,91.171C30.392,91.008 29.946,90.845 29.504,90.668C29.23,90.558 28.96,90.439 28.688,90.323C28.285,90.153 27.883,89.982 27.484,89.801C27.201,89.672 26.921,89.534 26.641,89.4C26.257,89.215 25.874,89.029 25.495,88.834C25.213,88.688 24.933,88.537 24.653,88.386C24.28,88.185 23.91,87.979 23.542,87.767C23.264,87.606 22.987,87.442 22.711,87.276C22.346,87.055 21.985,86.829 21.625,86.597C21.354,86.423 21.085,86.248 20.817,86.069C20.456,85.826 20.099,85.575 19.744,85.321C19.486,85.136 19.228,84.955 18.973,84.764C18.609,84.493 18.251,84.211 17.894,83.928C17.656,83.74 17.416,83.556 17.181,83.363C16.797,83.048 16.42,82.717 16.044,82.387C15.844,82.211 15.641,82.042 15.443,81.863C14.911,81.381 14.388,80.883 13.873,80.371C13.839,80.337 13.803,80.307 13.769,80.272C13.726,80.229 13.686,80.183 13.644,80.14C13.138,79.631 12.645,79.114 12.167,78.587C11.979,78.38 11.803,78.166 11.619,77.956C11.295,77.586 10.97,77.217 10.66,76.84C10.456,76.592 10.263,76.338 10.065,76.086C9.791,75.739 9.516,75.393 9.253,75.039C9.051,74.768 8.858,74.492 8.663,74.217C8.421,73.876 8.179,73.534 7.947,73.189C7.754,72.901 7.568,72.61 7.382,72.318C7.165,71.978 6.949,71.637 6.741,71.293C6.558,70.991 6.381,70.686 6.206,70.38C6.012,70.041 5.821,69.701 5.636,69.359C5.465,69.043 5.298,68.724 5.135,68.405C4.962,68.066 4.795,67.726 4.63,67.384C4.473,67.057 4.317,66.729 4.169,66.399C4.016,66.06 3.87,65.719 3.725,65.378C3.581,65.039 3.438,64.7 3.303,64.358C3.17,64.023 3.047,63.685 2.922,63.348C2.792,62.995 2.66,62.643 2.538,62.287C2.426,61.96 2.324,61.63 2.22,61.3C2.103,60.932 1.982,60.564 1.874,60.194C1.785,59.885 1.707,59.576 1.624,59.266C1.518,58.87 1.406,58.475 1.31,58.078C1.259,57.864 1.218,57.649 1.17,57.435C0.942,56.428 0.747,55.416 0.586,54.4C0.562,54.243 0.53,54.086 0.506,53.927C0.44,53.48 0.39,53.031 0.338,52.583C0.306,52.313 0.268,52.045 0.241,51.775C0.198,51.348 0.169,50.921 0.137,50.493C0.12,50.262 0.095,50.03 0.081,49.799C-0.68,62.741 3.881,75.938 13.769,85.824C32.132,104.187 61.904,104.187 80.267,85.824L80.267,80.273C78.124,82.417 75.821,84.298 73.404,85.941C73.313,86.002 73.224,86.068 73.132,86.13Z" style="fill:rgb(113,9,10);fill-rule:nonzero;"/>
        </g>
        <g transform="matrix(1,0,0,1,7.35681,0)">
            <path d="M0.075,49.619C0.042,49.027 0.027,48.433 0.016,47.841C0.027,48.434 0.042,49.026 0.075,49.619Z" style="fill:rgb(238,64,54);fill-rule:nonzero;"/>
        </g>
        <g transform="matrix(1,0,0,1,7.35681,0)">
            <path d="M1.644,34.708C1.776,34.221 1.91,33.733 2.058,33.249C1.91,33.733 1.776,34.221 1.644,34.708Z" style="fill:rgb(238,64,54);fill-rule:nonzero;"/>
        </g>
        <g transform="matrix(1,0,0,1,7.35681,0)">
            <path d="M0.003,47.266C-0.001,46.567 0.014,45.868 0.041,45.168C0.014,45.867 -0.001,46.566 0.003,47.266Z" style="fill:rgb(238,64,54);fill-rule:nonzero;"/>
        </g>
        <g transform="matrix(1,0,0,1,7.35681,0)">
            <path d="M1.056,37.137C1.171,36.598 1.29,36.059 1.424,35.524C1.29,36.059 1.171,36.598 1.056,37.137Z" style="fill:rgb(238,64,54);fill-rule:nonzero;"/>
        </g>
        <g transform="matrix(1,0,0,1,7.35681,0)">
            <path d="M4.079,27.856C4.266,27.438 4.458,27.022 4.658,26.608C4.458,27.022 4.266,27.438 4.079,27.856Z" style="fill:rgb(238,64,54);fill-rule:nonzero;"/>
        </g>
        <g transform="matrix(1,0,0,1,7.35681,0)">
            <path d="M5.119,25.678C5.326,25.271 5.542,24.867 5.762,24.465C5.542,24.867 5.326,25.271 5.119,25.678Z" style="fill:rgb(238,64,54);fill-rule:nonzero;"/>
        </g>
        <g transform="matrix(1,0,0,1,7.35681,0)">
            <path d="M2.342,32.368C2.491,31.911 2.644,31.456 2.808,31.003C2.644,31.456 2.492,31.911 2.342,32.368Z" style="fill:rgb(238,64,54);fill-rule:nonzero;"/>
        </g>
        <g transform="matrix(1,0,0,1,7.35681,0)">
            <path d="M0.565,39.775C0.667,39.122 0.777,38.47 0.906,37.821C0.777,38.471 0.667,39.122 0.565,39.775Z" style="fill:rgb(238,64,54);fill-rule:nonzero;"/>
        </g>
        <g transform="matrix(1,0,0,1,7.35681,0)">
            <path d="M0.047,44.911C0.118,43.314 0.271,41.722 0.504,40.138C0.271,41.722 0.119,43.314 0.047,44.911Z" style="fill:rgb(238,64,54);fill-rule:nonzero;"/>
        </g>
        <g transform="matrix(1,0,0,1,7.35681,0)">
            <path d="M7.542,21.472C7.796,21.079 8.063,20.692 8.332,20.305C8.064,20.691 7.797,21.078 7.542,21.472Z" style="fill:rgb(238,64,54);fill-rule:nonzero;"/>
        </g>
        <g transform="matrix(1,0,0,1,7.35681,0)">
            <path d="M6.272,23.549C6.501,23.152 6.741,22.758 6.983,22.366C6.741,22.758 6.501,23.151 6.272,23.549Z" style="fill:rgb(238,64,54);fill-rule:nonzero;"/>
        </g>
        <g transform="matrix(1,0,0,1,7.35681,0)">
            <path d="M3.154,30.086C3.321,29.651 3.494,29.219 3.675,28.788C3.494,29.219 3.321,29.651 3.154,30.086Z" style="fill:rgb(238,64,54);fill-rule:nonzero;"/>
        </g>
        <g transform="matrix(1,0,0,1,7.35681,0)">
            <path d="M12.04,15.599C12.598,14.979 13.173,14.37 13.769,13.773C13.172,14.369 12.597,14.979 12.04,15.599Z" style="fill:rgb(238,64,54);fill-rule:nonzero;"/>
        </g>
        <g transform="matrix(1,0,0,1,7.35681,0)">
            <path d="M23.597,48.903C23.552,48.331 23.519,47.757 23.515,47.183C23.514,46.999 23.523,46.815 23.526,46.63C23.534,46.132 23.558,45.635 23.597,45.138C23.611,44.966 23.618,44.794 23.636,44.623C23.697,44.028 23.786,43.437 23.892,42.849C23.925,42.662 23.958,42.477 23.996,42.291C24.117,41.698 24.26,41.109 24.427,40.526C24.473,40.367 24.523,40.21 24.572,40.051C24.761,39.439 24.968,38.831 25.208,38.234C25.239,38.157 25.275,38.083 25.307,38.006C25.547,37.428 25.812,36.858 26.1,36.296C26.152,36.195 26.2,36.093 26.253,35.993C26.565,35.406 26.907,34.832 27.273,34.267C27.347,34.154 27.421,34.039 27.497,33.926C27.875,33.364 28.276,32.815 28.707,32.28C28.777,32.193 28.852,32.108 28.923,32.022C29.386,31.464 29.871,30.918 30.395,30.394C34.986,25.803 41.003,23.508 47.02,23.508C53.037,23.507 59.054,25.803 63.645,30.394L77.378,16.661C58.901,1.011 31.198,1.896 13.769,19.324C5.305,27.788 0.746,38.676 0.084,49.752C0.099,49.999 0.119,50.245 0.137,50.491C0.169,50.919 0.198,51.346 0.241,51.773C0.268,52.043 0.305,52.311 0.338,52.581C0.391,53.029 0.441,53.477 0.506,53.925C0.529,54.083 0.561,54.24 0.586,54.398C0.747,55.415 0.942,56.426 1.17,57.433C1.218,57.647 1.259,57.862 1.31,58.076C1.406,58.473 1.518,58.869 1.624,59.264C1.707,59.574 1.785,59.883 1.874,60.192C1.982,60.562 2.103,60.93 2.22,61.298C2.324,61.628 2.426,61.958 2.538,62.285C2.66,62.64 2.792,62.993 2.922,63.346C3.047,63.683 3.171,64.021 3.303,64.356C3.438,64.698 3.582,65.037 3.725,65.376C3.87,65.718 4.016,66.059 4.169,66.397C4.318,66.727 4.473,67.055 4.63,67.382C4.795,67.725 4.962,68.065 5.135,68.403C5.298,68.722 5.465,69.041 5.636,69.357C5.821,69.699 6.012,70.04 6.206,70.378C6.381,70.684 6.558,70.989 6.741,71.291C6.949,71.636 7.164,71.977 7.382,72.316C7.568,72.608 7.754,72.899 7.947,73.187C8.179,73.533 8.421,73.875 8.663,74.215C8.858,74.49 9.051,74.766 9.253,75.037C9.516,75.391 9.791,75.737 10.065,76.084C10.263,76.336 10.456,76.59 10.66,76.838C10.97,77.215 11.295,77.584 11.619,77.954C11.803,78.164 11.979,78.378 12.167,78.585C12.645,79.111 13.138,79.629 13.644,80.138C13.686,80.181 13.726,80.227 13.769,80.27C13.803,80.304 13.839,80.334 13.873,80.369C14.388,80.881 14.911,81.379 15.443,81.861C15.641,82.041 15.844,82.21 16.044,82.385C16.42,82.715 16.797,83.045 17.181,83.361C17.416,83.554 17.656,83.739 17.894,83.926C18.251,84.209 18.609,84.491 18.973,84.762C19.228,84.952 19.486,85.134 19.744,85.319C20.099,85.573 20.456,85.824 20.817,86.067C21.085,86.247 21.354,86.421 21.625,86.595C21.985,86.826 22.346,87.053 22.711,87.274C22.986,87.44 23.263,87.604 23.542,87.765C23.91,87.977 24.281,88.183 24.653,88.384C24.933,88.535 25.213,88.687 25.495,88.832C25.875,89.027 26.258,89.214 26.641,89.398C26.922,89.533 27.202,89.67 27.484,89.799C27.883,89.981 28.285,90.152 28.688,90.321C28.96,90.436 29.23,90.555 29.504,90.666C29.946,90.843 30.392,91.006 30.838,91.169C31.077,91.257 31.314,91.351 31.553,91.435C32.231,91.67 32.913,91.891 33.6,92.095C33.772,92.146 33.947,92.188 34.12,92.237C34.642,92.385 35.165,92.531 35.691,92.661C35.985,92.733 36.28,92.795 36.575,92.861C36.983,92.954 37.391,93.048 37.801,93.129C38.127,93.194 38.454,93.249 38.781,93.307C39.161,93.374 39.542,93.442 39.924,93.5C40.267,93.552 40.611,93.596 40.955,93.64C41.322,93.688 41.689,93.734 42.057,93.773C42.412,93.81 42.768,93.841 43.124,93.872C43.48,93.901 43.836,93.927 44.193,93.948C44.559,93.969 44.924,93.988 45.291,94.002C45.638,94.015 45.985,94.022 46.333,94.026C46.707,94.032 47.081,94.036 47.455,94.032C47.791,94.029 48.127,94.018 48.463,94.009C48.847,93.997 49.232,93.987 49.615,93.965C49.935,93.947 50.255,93.92 50.575,93.897C50.972,93.867 51.371,93.839 51.768,93.799C52.051,93.771 52.333,93.732 52.615,93.697C54.225,93.506 55.827,93.231 57.414,92.873C57.605,92.83 57.797,92.793 57.988,92.747C58.438,92.64 58.885,92.518 59.332,92.396C59.578,92.33 59.824,92.267 60.069,92.197C60.501,92.073 60.929,91.936 61.358,91.799C61.614,91.718 61.87,91.638 62.125,91.552C62.548,91.408 62.969,91.255 63.389,91.1C63.644,91.005 63.898,90.911 64.152,90.812C64.57,90.649 64.986,90.477 65.401,90.301C65.65,90.196 65.898,90.088 66.145,89.978C66.561,89.793 66.975,89.603 67.386,89.406C67.625,89.291 67.862,89.173 68.099,89.053C68.515,88.844 68.929,88.633 69.339,88.411C69.559,88.292 69.776,88.168 69.994,88.046C70.417,87.808 70.84,87.569 71.257,87.317C71.441,87.207 71.621,87.089 71.803,86.975C72.249,86.699 72.694,86.421 73.132,86.128C73.224,86.066 73.313,86 73.404,85.938C75.821,84.295 78.124,82.414 80.267,80.27L63.643,63.646C54.462,72.828 39.576,72.828 30.394,63.646C26.5,59.752 24.276,54.832 23.685,49.757C23.678,49.694 23.665,49.633 23.658,49.57C23.634,49.349 23.615,49.127 23.597,48.903ZM58.869,13.563C59.814,11.617 62.16,10.804 64.106,11.75C65.964,12.651 66.771,14.827 66.018,16.716C66.415,17.705 66.422,18.847 65.919,19.881C65.242,21.278 63.845,22.091 62.393,22.091C61.817,22.091 61.235,21.963 60.684,21.696C58.823,20.794 58.019,18.619 58.77,16.727C58.374,15.74 58.368,14.599 58.869,13.563ZM43.184,11.748C43.187,9.585 44.945,7.832 47.108,7.838C49.271,7.84 51.024,9.598 51.018,11.761C51.018,12.271 50.913,12.755 50.735,13.201C50.915,13.652 51.019,14.141 51.018,14.657C51.016,16.819 49.263,18.57 47.103,18.567L47.095,18.567C44.932,18.565 43.179,16.807 43.184,14.643C43.184,14.133 43.29,13.65 43.468,13.204C43.287,12.753 43.183,12.264 43.184,11.748ZM30.102,11.67C32.053,10.736 34.394,11.563 35.326,13.514C35.818,14.544 35.809,15.677 35.415,16.659C36.169,18.559 35.35,20.744 33.478,21.638C32.932,21.896 32.358,22.022 31.791,22.022C30.33,22.022 28.925,21.199 28.254,19.792C27.762,18.762 27.771,17.629 28.165,16.646C27.41,14.744 28.229,12.563 30.102,11.67ZM16.443,22.513C17.797,20.825 20.263,20.554 21.95,21.908C23.329,23.014 23.745,24.854 23.123,26.414C23.629,27.682 23.473,29.171 22.559,30.313C21.783,31.28 20.647,31.781 19.498,31.781C18.638,31.781 17.773,31.499 17.049,30.92C15.673,29.816 15.257,27.976 15.878,26.415C15.374,25.146 15.529,23.655 16.443,22.513ZM8.829,38.206C9.315,36.098 11.418,34.78 13.529,35.267C15.637,35.75 16.954,37.853 16.468,39.964C16.423,40.16 16.357,40.346 16.285,40.528C16.572,41.244 16.654,42.049 16.468,42.859C16.05,44.672 14.436,45.9 12.651,45.9C12.362,45.9 12.066,45.866 11.771,45.798C9.66,45.312 8.343,43.209 8.829,41.101C8.874,40.906 8.946,40.726 9.017,40.545C8.727,39.827 8.641,39.019 8.829,38.206ZM12.611,61.596C10.819,61.596 9.199,60.358 8.792,58.533C8.611,57.731 8.693,56.932 8.978,56.222C8.904,56.034 8.838,55.841 8.792,55.637C8.317,53.526 9.643,51.431 11.754,50.956C13.865,50.479 15.963,51.807 16.438,53.921L16.435,53.921C16.617,54.726 16.533,55.527 16.246,56.239C16.32,56.426 16.393,56.614 16.438,56.816L16.435,56.816C16.911,58.926 15.584,61.021 13.473,61.497C13.184,61.563 12.896,61.596 12.611,61.596ZM21.817,74.902C21.096,75.476 20.236,75.755 19.382,75.755C18.228,75.755 17.086,75.247 16.313,74.273C15.405,73.131 15.253,71.648 15.757,70.385C15.132,68.82 15.554,66.973 16.942,65.869C18.635,64.524 21.101,64.806 22.449,66.502L22.447,66.502C23.354,67.642 23.506,69.126 23.002,70.389C23.627,71.954 23.206,73.801 21.817,74.902ZM60.542,75.311C62.496,74.378 64.834,75.207 65.767,77.161C66.258,78.19 66.249,79.322 65.855,80.304C66.611,82.205 65.79,84.388 63.917,85.283C63.374,85.541 62.799,85.664 62.232,85.664C60.769,85.664 59.366,84.842 58.692,83.434C58.203,82.405 58.212,81.274 58.605,80.293C57.851,78.391 58.671,76.204 60.542,75.311ZM42.998,82.28C43.004,80.114 44.762,78.364 46.928,78.369C49.09,78.376 50.841,80.134 50.835,82.299C50.834,82.807 50.729,83.289 50.551,83.735C50.732,84.188 50.836,84.678 50.835,85.196C50.83,87.356 49.077,89.103 46.917,89.103L46.909,89.103C44.744,89.098 42.993,87.34 42.998,85.177C42.999,84.668 43.105,84.186 43.282,83.739C43.101,83.287 42.997,82.797 42.998,82.28ZM28.101,77.048C29.049,75.102 31.392,74.29 33.338,75.235C35.197,76.138 36.003,78.314 35.251,80.204C35.648,81.193 35.654,82.336 35.152,83.37C34.472,84.766 33.077,85.577 31.622,85.577C31.047,85.577 30.464,85.449 29.914,85.181L29.914,85.183C28.055,84.278 27.249,82.105 28.002,80.215C27.604,79.224 27.598,78.082 28.101,77.048Z" style="fill:rgb(238,64,54);fill-rule:nonzero;"/>
        </g>
        <g transform="matrix(1,0,0,1,7.35681,0)">
            <path d="M10.425,17.494C10.769,17.069 11.13,16.653 11.491,16.237C11.13,16.653 10.769,17.068 10.425,17.494Z" style="fill:rgb(238,64,54);fill-rule:nonzero;"/>
        </g>
        <g transform="matrix(1,0,0,1,7.35681,0)">
            <path d="M8.926,19.453C9.215,19.056 9.518,18.665 9.82,18.274C9.518,18.665 9.214,19.056 8.926,19.453Z" style="fill:rgb(238,64,54);fill-rule:nonzero;"/>
        </g>
        <g transform="matrix(1,0,0,1,7.35681,0)">
            <path d="M79.111,14.93L80.268,13.773C77.144,10.649 73.684,8.07 70.012,6.008C73.684,8.07 77.143,10.649 80.267,13.773L79.111,14.93Z" style="fill:rgb(238,64,54);fill-rule:nonzero;"/>
        </g>
        <g transform="matrix(1,0,0,1,7.35681,0)">
            <path d="M58.692,83.432C59.366,84.84 60.769,85.662 62.232,85.662C62.799,85.662 63.374,85.539 63.917,85.281C65.791,84.386 66.611,82.204 65.855,80.302C65.501,81.183 64.84,81.943 63.917,82.384C63.374,82.643 62.799,82.766 62.232,82.766C60.769,82.766 59.366,81.942 58.692,80.535C58.654,80.455 58.637,80.372 58.605,80.291C58.212,81.271 58.203,82.402 58.692,83.432Z" style="fill:rgb(159,29,32);fill-rule:nonzero;"/>
        </g>
        <g transform="matrix(1,0,0,1,7.35681,0)">
            <path d="M46.909,89.103L46.917,89.103C49.077,89.103 50.83,87.356 50.835,85.196C50.836,84.678 50.732,84.188 50.551,83.735C49.975,85.182 48.569,86.208 46.917,86.208L46.909,86.208C45.261,86.203 43.859,85.182 43.282,83.74C43.105,84.186 42.999,84.669 42.998,85.178C42.993,87.34 44.744,89.098 46.909,89.103Z" style="fill:rgb(159,29,32);fill-rule:nonzero;"/>
        </g>
        <g transform="matrix(1,0,0,1,7.35681,0)">
            <path d="M29.914,85.182L29.914,85.18C30.464,85.449 31.047,85.576 31.622,85.576C33.077,85.576 34.472,84.764 35.152,83.369C35.654,82.335 35.648,81.192 35.251,80.203C35.215,80.292 35.195,80.385 35.152,80.473C34.472,81.868 33.078,82.68 31.622,82.68C31.047,82.68 30.465,82.552 29.914,82.283L29.914,82.286C29.002,81.843 28.351,81.087 28.002,80.215C27.249,82.104 28.055,84.276 29.914,85.182Z" style="fill:rgb(159,29,32);fill-rule:nonzero;"/>
        </g>
        <g transform="matrix(1,0,0,1,7.35681,0)">
            <path d="M23.002,70.389C22.757,71.002 22.371,71.567 21.817,72.007C21.096,72.581 20.236,72.858 19.382,72.858C18.228,72.858 17.086,72.352 16.313,71.378C16.068,71.07 15.896,70.732 15.757,70.386C15.253,71.649 15.405,73.132 16.313,74.274C17.086,75.249 18.228,75.756 19.382,75.756C20.236,75.756 21.096,75.478 21.817,74.903C23.206,73.801 23.627,71.954 23.002,70.389Z" style="fill:rgb(159,29,32);fill-rule:nonzero;"/>
        </g>
        <g transform="matrix(1,0,0,1,7.35681,0)">
            <path d="M47.095,18.567L47.103,18.567C49.263,18.57 51.016,16.819 51.018,14.657C51.019,14.141 50.915,13.652 50.735,13.201C50.159,14.648 48.754,15.674 47.103,15.672L47.095,15.672C45.448,15.67 44.044,14.647 43.468,13.204C43.29,13.65 43.185,14.134 43.184,14.643C43.179,16.808 44.932,18.565 47.095,18.567Z" style="fill:rgb(159,29,32);fill-rule:nonzero;"/>
        </g>
        <g transform="matrix(1,0,0,1,7.35681,0)">
            <path d="M28.254,19.791C28.925,21.198 30.33,22.021 31.791,22.021C32.358,22.021 32.932,21.895 33.478,21.637C35.349,20.742 36.169,18.558 35.415,16.658C35.062,17.539 34.401,18.3 33.478,18.74C32.932,19 32.358,19.125 31.791,19.125C30.33,19.125 28.925,18.303 28.254,16.895C28.215,16.814 28.197,16.729 28.165,16.646C27.771,17.628 27.762,18.761 28.254,19.791Z" style="fill:rgb(159,29,32);fill-rule:nonzero;"/>
        </g>
        <g transform="matrix(1,0,0,1,7.35681,0)">
            <path d="M11.771,45.799C12.066,45.866 12.362,45.901 12.651,45.901C14.436,45.901 16.05,44.673 16.468,42.86C16.655,42.05 16.572,41.245 16.285,40.529C15.692,42.025 14.243,43.006 12.651,43.006C12.362,43.006 12.066,42.972 11.771,42.903C10.474,42.604 9.481,41.693 9.018,40.547C8.947,40.728 8.874,40.907 8.83,41.103C8.342,43.21 9.66,45.313 11.771,45.799Z" style="fill:rgb(159,29,32);fill-rule:nonzero;"/>
        </g>
        <g transform="matrix(1,0,0,1,7.35681,0)">
            <path d="M17.049,30.919C17.773,31.498 18.638,31.78 19.498,31.78C20.647,31.78 21.783,31.279 22.559,30.312C23.473,29.169 23.629,27.68 23.123,26.413C22.983,26.765 22.808,27.106 22.559,27.417C21.783,28.384 20.647,28.885 19.498,28.885C18.638,28.885 17.773,28.603 17.049,28.023C16.502,27.585 16.121,27.023 15.878,26.415C15.257,27.975 15.673,29.814 17.049,30.919Z" style="fill:rgb(159,29,32);fill-rule:nonzero;"/>
        </g>
        <g transform="matrix(1,0,0,1,7.35681,0)">
            <path d="M16.436,56.817L16.439,56.817C16.394,56.615 16.32,56.426 16.247,56.24C15.782,57.393 14.78,58.308 13.475,58.602C13.185,58.667 12.898,58.698 12.614,58.698C11.021,58.698 9.571,57.719 8.98,56.222C8.696,56.932 8.614,57.731 8.794,58.533C9.201,60.357 10.821,61.596 12.613,61.596C12.898,61.596 13.185,61.564 13.475,61.498C15.584,61.022 16.912,58.928 16.436,56.817Z" style="fill:rgb(159,29,32);fill-rule:nonzero;"/>
        </g>
        <g transform="matrix(1,0,0,1,7.35681,0)">
            <path d="M60.684,21.697C61.235,21.964 61.817,22.092 62.393,22.092C63.845,22.092 65.242,21.279 65.919,19.882C66.421,18.848 66.415,17.706 66.018,16.717C65.982,16.806 65.962,16.898 65.919,16.986C65.242,18.384 63.845,19.196 62.393,19.196C61.817,19.196 61.235,19.068 60.684,18.801C59.77,18.358 59.119,17.602 58.77,16.729C58.019,18.62 58.822,20.795 60.684,21.697Z" style="fill:rgb(159,29,32);fill-rule:nonzero;"/>
        </g>
        <g transform="matrix(1,0,0,1,7.35681,0)">
            <path d="M47.095,15.672L47.103,15.672C48.754,15.674 50.16,14.649 50.735,13.201C50.912,12.755 51.017,12.27 51.018,11.761C51.024,9.598 49.271,7.84 47.108,7.838C44.945,7.832 43.187,9.585 43.184,11.748C43.183,12.264 43.288,12.753 43.468,13.204C44.043,14.646 45.447,15.67 47.095,15.672Z" style="fill:rgb(255,241,0);fill-rule:nonzero;"/>
        </g>
        <g transform="matrix(1,0,0,1,7.35681,0)">
            <path d="M29.914,82.285L29.914,82.282C30.465,82.552 31.047,82.679 31.622,82.679C33.078,82.679 34.472,81.866 35.152,80.472C35.195,80.384 35.215,80.291 35.251,80.202C36.003,78.312 35.197,76.137 33.338,75.233C31.392,74.289 29.049,75.1 28.101,77.046C27.598,78.08 27.604,79.222 28.002,80.212C28.351,81.086 29.001,81.842 29.914,82.285Z" style="fill:rgb(255,241,0);fill-rule:nonzero;"/>
        </g>
        <g transform="matrix(1,0,0,1,7.35681,0)">
            <path d="M31.792,19.125C32.359,19.125 32.933,19 33.479,18.74C34.402,18.3 35.062,17.539 35.416,16.658C35.81,15.677 35.818,14.544 35.327,13.513C34.395,11.562 32.054,10.736 30.103,11.669C28.23,12.562 27.412,14.743 28.166,16.645C28.199,16.728 28.216,16.813 28.255,16.894C28.925,18.303 30.331,19.125 31.792,19.125Z" style="fill:rgb(255,241,0);fill-rule:nonzero;"/>
        </g>
        <g transform="matrix(1,0,0,1,7.35681,0)">
            <path d="M11.771,42.902C12.066,42.97 12.362,43.005 12.651,43.005C14.243,43.005 15.693,42.025 16.285,40.528C16.357,40.345 16.422,40.16 16.468,39.964C16.954,37.853 15.637,35.75 13.529,35.267C11.418,34.781 9.315,36.098 8.829,38.206C8.641,39.019 8.727,39.827 9.017,40.546C9.48,41.692 10.473,42.604 11.771,42.902Z" style="fill:rgb(255,241,0);fill-rule:nonzero;"/>
        </g>
        <g transform="matrix(1,0,0,1,7.35681,0)">
            <path d="M62.232,82.767C62.799,82.767 63.374,82.644 63.917,82.385C64.841,81.944 65.502,81.184 65.855,80.303C66.249,79.322 66.258,78.19 65.767,77.16C64.834,75.206 62.496,74.378 60.542,75.31C58.67,76.204 57.851,78.39 58.604,80.29C58.636,80.371 58.653,80.454 58.691,80.534C59.367,81.942 60.77,82.767 62.232,82.767Z" style="fill:rgb(255,241,0);fill-rule:nonzero;"/>
        </g>
        <g transform="matrix(1,0,0,1,7.35681,0)">
            <path d="M17.049,28.022C17.773,28.602 18.638,28.884 19.498,28.884C20.647,28.884 21.783,28.383 22.559,27.416C22.808,27.105 22.983,26.764 23.123,26.412C23.746,24.852 23.33,23.013 21.95,21.906C20.263,20.552 17.797,20.824 16.443,22.511C15.528,23.654 15.373,25.145 15.878,26.412C16.121,27.022 16.502,27.584 17.049,28.022Z" style="fill:rgb(255,241,0);fill-rule:nonzero;"/>
        </g>
        <g transform="matrix(1,0,0,1,7.35681,0)">
            <path d="M19.382,72.857C20.236,72.857 21.096,72.581 21.817,72.006C22.371,71.566 22.757,71.001 23.002,70.388C23.506,69.125 23.354,67.641 22.447,66.501L22.449,66.501C21.101,64.806 18.635,64.523 16.942,65.868C15.555,66.972 15.132,68.818 15.757,70.384C15.896,70.731 16.068,71.069 16.313,71.376C17.086,72.352 18.229,72.857 19.382,72.857Z" style="fill:rgb(255,241,0);fill-rule:nonzero;"/>
        </g>
        <g transform="matrix(1,0,0,1,7.35681,0)">
            <path d="M46.909,86.207L46.917,86.207C48.569,86.207 49.976,85.182 50.551,83.734C50.728,83.289 50.834,82.806 50.835,82.298C50.841,80.133 49.09,78.375 46.928,78.368C44.762,78.363 43.004,80.113 42.998,82.279C42.997,82.796 43.102,83.286 43.282,83.738C43.858,85.181 45.261,86.202 46.909,86.207Z" style="fill:rgb(255,241,0);fill-rule:nonzero;"/>
        </g>
        <g transform="matrix(1,0,0,1,7.35681,0)">
            <path d="M12.612,58.698C12.896,58.698 13.183,58.668 13.473,58.602C14.778,58.308 15.781,57.393 16.245,56.24C16.532,55.528 16.616,54.726 16.434,53.922L16.437,53.922C15.962,51.808 13.864,50.481 11.753,50.957C9.642,51.432 8.316,53.526 8.791,55.638C8.836,55.842 8.902,56.035 8.977,56.223C9.569,57.719 11.02,58.698 12.612,58.698Z" style="fill:rgb(255,241,0);fill-rule:nonzero;"/>
        </g>
        <g transform="matrix(1,0,0,1,7.35681,0)">
            <path d="M60.684,18.801C61.235,19.068 61.817,19.196 62.393,19.196C63.845,19.196 65.242,18.384 65.919,16.986C65.961,16.898 65.982,16.806 66.018,16.717C66.771,14.828 65.965,12.653 64.106,11.751C62.16,10.805 59.814,11.617 58.869,13.564C58.368,14.599 58.374,15.741 58.77,16.729C59.119,17.602 59.77,18.357 60.684,18.801Z" style="fill:rgb(255,241,0);fill-rule:nonzero;"/>
        </g>
        <g transform="matrix(1,0,0,1,7.35681,0)">
            <path d="M5.761,24.465C5.929,24.158 6.097,23.853 6.272,23.549C6.097,23.853 5.929,24.158 5.761,24.465Z" style="fill:url(#_Linear1);fill-rule:nonzero;"/>
        </g>
        <g transform="matrix(1,0,0,1,7.35681,0)">
            <path d="M0.041,45.168C0.044,45.082 0.043,44.997 0.047,44.911C0.043,44.997 0.044,45.082 0.041,45.168Z" style="fill:url(#_Linear2);fill-rule:nonzero;"/>
        </g>
        <g transform="matrix(1,0,0,1,7.35681,0)">
            <path d="M0.504,40.138C0.522,40.017 0.546,39.897 0.565,39.776C0.546,39.896 0.521,40.017 0.504,40.138Z" style="fill:url(#_Linear3);fill-rule:nonzero;"/>
        </g>
        <g transform="matrix(1,0,0,1,7.35681,0)">
            <path d="M0.906,37.821C0.952,37.592 1.007,37.365 1.056,37.136C1.007,37.365 0.951,37.592 0.906,37.821Z" style="fill:url(#_Linear4);fill-rule:nonzero;"/>
        </g>
        <g transform="matrix(1,0,0,1,7.35681,0)">
            <path d="M6.983,22.366C7.168,22.066 7.35,21.767 7.542,21.471C7.351,21.768 7.168,22.066 6.983,22.366Z" style="fill:url(#_Linear5);fill-rule:nonzero;"/>
        </g>
        <g transform="matrix(1,0,0,1,7.35681,0)">
            <path d="M2.058,33.249C2.148,32.954 2.246,32.661 2.342,32.368C2.246,32.662 2.148,32.954 2.058,33.249Z" style="fill:url(#_Linear6);fill-rule:nonzero;"/>
        </g>
        <g transform="matrix(1,0,0,1,7.35681,0)">
            <path d="M4.658,26.608C4.808,26.296 4.961,25.986 5.119,25.677C4.961,25.986 4.808,26.297 4.658,26.608Z" style="fill:url(#_Linear7);fill-rule:nonzero;"/>
        </g>
        <g transform="matrix(1,0,0,1,7.35681,0)">
            <path d="M3.674,28.788C3.805,28.476 3.941,28.166 4.079,27.856C3.941,28.166 3.805,28.477 3.674,28.788Z" style="fill:url(#_Linear8);fill-rule:nonzero;"/>
        </g>
        <g transform="matrix(1,0,0,1,7.35681,0)">
            <path d="M1.424,35.523C1.493,35.25 1.57,34.979 1.644,34.708C1.571,34.979 1.493,35.25 1.424,35.523Z" style="fill:url(#_Linear9);fill-rule:nonzero;"/>
        </g>
        <g transform="matrix(1,0,0,1,7.35681,0)">
            <path d="M11.491,16.237C11.675,16.025 11.85,15.808 12.039,15.598C11.851,15.809 11.675,16.025 11.491,16.237Z" style="fill:url(#_Linear10);fill-rule:nonzero;"/>
        </g>
        <g transform="matrix(1,0,0,1,7.35681,0)">
            <path d="M8.332,20.305C8.529,20.021 8.722,19.735 8.926,19.453C8.722,19.734 8.529,20.021 8.332,20.305Z" style="fill:url(#_Linear11);fill-rule:nonzero;"/>
        </g>
        <g transform="matrix(1,0,0,1,7.35681,0)">
            <path d="M70.012,6.008C62.892,2.012 54.958,0 47.019,0C34.985,0 22.951,4.591 13.769,13.772C29.008,-1.466 52.099,-4.045 70.012,6.008Z" style="fill:url(#_Linear12);fill-rule:nonzero;"/>
        </g>
        <g transform="matrix(1,0,0,1,7.35681,0)">
            <path d="M9.82,18.274C10.022,18.014 10.217,17.751 10.425,17.494C10.217,17.751 10.022,18.015 9.82,18.274Z" style="fill:url(#_Linear13);fill-rule:nonzero;"/>
        </g>
        <g transform="matrix(1,0,0,1,7.35681,0)">
            <path d="M2.808,31.003C2.919,30.696 3.037,30.391 3.154,30.086C3.037,30.391 2.919,30.695 2.808,31.003Z" style="fill:url(#_Linear14);fill-rule:nonzero;"/>
        </g>
        <g transform="matrix(1,0,0,1,7.35681,0)">
            <path d="M0.081,49.797C0.082,49.782 0.084,49.767 0.084,49.752C0.082,49.708 0.077,49.663 0.075,49.619C0.079,49.679 0.078,49.737 0.081,49.797Z" style="fill:url(#_Linear15);fill-rule:nonzero;"/>
        </g>
        <g transform="matrix(1,0,0,1,7.35681,0)">
            <path d="M0.017,47.841C0.014,47.649 0.004,47.457 0.003,47.266C0.004,47.457 0.013,47.648 0.017,47.841Z" style="fill:url(#_Linear16);fill-rule:nonzero;"/>
        </g>
        <g transform="matrix(1,0,0,1,7.35681,0)">
            <path d="M77.377,16.665L79.111,14.93L77.376,16.664L77.377,16.665Z" style="fill:rgb(113,9,10);fill-rule:nonzero;"/>
        </g>
        <g transform="matrix(1,0,0,1,7.35681,0)">
            <path d="M77.377,16.665L79.111,14.93L77.376,16.664L77.377,16.665Z" style="fill:url(#_Linear17);fill-rule:nonzero;"/>
        </g>
        <g transform="matrix(1,0,0,1,7.35681,0)">
            <path d="M77.376,16.664L79.111,14.93L80.267,13.773C77.143,10.649 73.684,8.07 70.012,6.008C52.099,-4.045 29.008,-1.466 13.769,13.772C13.172,14.369 12.597,14.978 12.04,15.598C11.851,15.808 11.676,16.025 11.492,16.237C11.131,16.653 10.769,17.069 10.426,17.494C10.218,17.751 10.023,18.015 9.821,18.274C9.519,18.665 9.216,19.055 8.927,19.453C8.723,19.734 8.53,20.02 8.333,20.305C8.065,20.692 7.798,21.079 7.543,21.472C7.351,21.768 7.168,22.067 6.984,22.367C6.742,22.759 6.502,23.152 6.273,23.55C6.098,23.854 5.93,24.159 5.762,24.466C5.542,24.868 5.326,25.272 5.119,25.679C4.961,25.988 4.808,26.298 4.658,26.61C4.459,27.024 4.266,27.44 4.079,27.858C3.941,28.168 3.805,28.478 3.674,28.79C3.493,29.221 3.321,29.653 3.153,30.088C3.036,30.393 2.918,30.698 2.807,31.005C2.643,31.458 2.491,31.913 2.341,32.37C2.245,32.663 2.147,32.956 2.057,33.251C1.909,33.735 1.775,34.223 1.643,34.71C1.569,34.981 1.492,35.252 1.423,35.525C1.289,36.06 1.17,36.599 1.055,37.138C1.006,37.367 0.951,37.593 0.905,37.823C0.776,38.472 0.666,39.124 0.564,39.777C0.545,39.898 0.521,40.018 0.503,40.139C0.27,41.723 0.118,43.316 0.046,44.912C0.042,44.998 0.043,45.083 0.04,45.169C0.013,45.868 -0.002,46.567 0.002,47.267C0.003,47.458 0.012,47.65 0.016,47.842C0.026,48.435 0.042,49.029 0.075,49.62C0.077,49.664 0.082,49.709 0.084,49.753C0.746,38.677 5.305,27.789 13.769,19.325C31.198,1.896 58.901,1.011 77.376,16.664Z" style="fill:rgb(238,64,54);fill-rule:nonzero;"/>
        </g>
        <g transform="matrix(1,0,0,1,7.35681,0)">
            <path d="M77.376,16.664L79.111,14.93L80.267,13.773C77.143,10.649 73.684,8.07 70.012,6.008C52.099,-4.045 29.008,-1.466 13.769,13.772C13.172,14.369 12.597,14.978 12.04,15.598C11.851,15.808 11.676,16.025 11.492,16.237C11.131,16.653 10.769,17.069 10.426,17.494C10.218,17.751 10.023,18.015 9.821,18.274C9.519,18.665 9.216,19.055 8.927,19.453C8.723,19.734 8.53,20.02 8.333,20.305C8.065,20.692 7.798,21.079 7.543,21.472C7.351,21.768 7.168,22.067 6.984,22.367C6.742,22.759 6.502,23.152 6.273,23.55C6.098,23.854 5.93,24.159 5.762,24.466C5.542,24.868 5.326,25.272 5.119,25.679C4.961,25.988 4.808,26.298 4.658,26.61C4.459,27.024 4.266,27.44 4.079,27.858C3.941,28.168 3.805,28.478 3.674,28.79C3.493,29.221 3.321,29.653 3.153,30.088C3.036,30.393 2.918,30.698 2.807,31.005C2.643,31.458 2.491,31.913 2.341,32.37C2.245,32.663 2.147,32.956 2.057,33.251C1.909,33.735 1.775,34.223 1.643,34.71C1.569,34.981 1.492,35.252 1.423,35.525C1.289,36.06 1.17,36.599 1.055,37.138C1.006,37.367 0.951,37.593 0.905,37.823C0.776,38.472 0.666,39.124 0.564,39.777C0.545,39.898 0.521,40.018 0.503,40.139C0.27,41.723 0.118,43.316 0.046,44.912C0.042,44.998 0.043,45.083 0.04,45.169C0.013,45.868 -0.002,46.567 0.002,47.267C0.003,47.458 0.012,47.65 0.016,47.842C0.026,48.435 0.042,49.029 0.075,49.62C0.077,49.664 0.082,49.709 0.084,49.753C0.746,38.677 5.305,27.789 13.769,19.325C31.198,1.896 58.901,1.011 77.376,16.664Z" style="fill:url(#_Linear18);fill-rule:nonzero;"/>
        </g>
    </g>
    <g transform="matrix(1,0,0,1,7.35681,0)">
        <clipPath id="_clip19">
            <path d="M30.394,69.198C39.576,78.38 54.461,78.38 63.644,69.198L63.644,63.646C54.461,72.828 39.576,72.828 30.394,63.646C26.51,59.762 24.277,54.858 23.678,49.796C22.861,56.703 25.096,63.899 30.394,69.198"/>
        </clipPath>
        <g clip-path="url(#_clip19)">
            <rect x="22.861" y="49.797" width="40.783" height="28.583" style="fill:url(#_Linear20);"/>
        </g>
    </g>
    <g transform="matrix(1,0,0,1,7.35681,0)">
        <path d="M80.268,80.271L63.643,63.646L63.643,69.197L77.377,82.93C78.367,82.091 79.333,81.206 80.268,80.271" style="fill:rgb(176,34,38);fill-rule:nonzero;"/>
    </g>
    <defs>
        <linearGradient id="_Linear1" x1="0" y1="0" x2="1" y2="0" gradientUnits="userSpaceOnUse" gradientTransform="matrix(80.2678,0,0,80.2678,-0.0240944,23.9407)"><stop offset="0" style="stop-color:rgb(238,64,54);stop-opacity:1"/><stop offset="1" style="stop-color:rgb(176,34,38);stop-opacity:1"/></linearGradient>
        <linearGradient id="_Linear2" x1="0" y1="0" x2="1" y2="0" gradientUnits="userSpaceOnUse" gradientTransform="matrix(2e-06,0,0,2e-06,0.0160395,45.0271)"><stop offset="0" style="stop-color:rgb(238,64,54);stop-opacity:1"/><stop offset="1" style="stop-color:rgb(176,34,38);stop-opacity:1"/></linearGradient>
        <linearGradient id="_Linear3" x1="0" y1="0" x2="1" y2="0" gradientUnits="userSpaceOnUse" gradientTransform="matrix(80.2678,0,0,80.2678,-0.0240944,39.9381)"><stop offset="0" style="stop-color:rgb(238,64,54);stop-opacity:1"/><stop offset="1" style="stop-color:rgb(176,34,38);stop-opacity:1"/></linearGradient>
        <linearGradient id="_Linear4" x1="0" y1="0" x2="1" y2="0" gradientUnits="userSpaceOnUse" gradientTransform="matrix(80.2678,0,0,80.2678,-0.0240944,37.506)"><stop offset="0" style="stop-color:rgb(238,64,54);stop-opacity:1"/><stop offset="1" style="stop-color:rgb(176,34,38);stop-opacity:1"/></linearGradient>
        <linearGradient id="_Linear5" x1="0" y1="0" x2="1" y2="0" gradientUnits="userSpaceOnUse" gradientTransform="matrix(85.9989,0,0,85.9989,-0.569915,21.8297)"><stop offset="0" style="stop-color:rgb(238,64,54);stop-opacity:1"/><stop offset="1" style="stop-color:rgb(176,34,38);stop-opacity:1"/></linearGradient>
        <linearGradient id="_Linear6" x1="0" y1="0" x2="1" y2="0" gradientUnits="userSpaceOnUse" gradientTransform="matrix(80.2678,0,0,80.2678,-0.0240944,32.8023)"><stop offset="0" style="stop-color:rgb(238,64,54);stop-opacity:1"/><stop offset="1" style="stop-color:rgb(176,34,38);stop-opacity:1"/></linearGradient>
        <linearGradient id="_Linear7" x1="0" y1="0" x2="1" y2="0" gradientUnits="userSpaceOnUse" gradientTransform="matrix(80.2678,0,0,80.2678,-0.0240944,26.14)"><stop offset="0" style="stop-color:rgb(238,64,54);stop-opacity:1"/><stop offset="1" style="stop-color:rgb(176,34,38);stop-opacity:1"/></linearGradient>
        <linearGradient id="_Linear8" x1="0" y1="0" x2="1" y2="0" gradientUnits="userSpaceOnUse" gradientTransform="matrix(80.2678,0,0,80.2678,-0.0240944,28.2591)"><stop offset="0" style="stop-color:rgb(238,64,54);stop-opacity:1"/><stop offset="1" style="stop-color:rgb(176,34,38);stop-opacity:1"/></linearGradient>
        <linearGradient id="_Linear9" x1="0" y1="0" x2="1" y2="0" gradientUnits="userSpaceOnUse" gradientTransform="matrix(80.2678,0,0,80.2678,-0.0240944,35.0738)"><stop offset="0" style="stop-color:rgb(238,64,54);stop-opacity:1"/><stop offset="1" style="stop-color:rgb(176,34,38);stop-opacity:1"/></linearGradient>
        <linearGradient id="_Linear10" x1="0" y1="0" x2="1" y2="0" gradientUnits="userSpaceOnUse" gradientTransform="matrix(80.2678,0,0,80.2678,-0.0642283,15.8738)"><stop offset="0" style="stop-color:rgb(238,64,54);stop-opacity:1"/><stop offset="1" style="stop-color:rgb(176,34,38);stop-opacity:1"/></linearGradient>
        <linearGradient id="_Linear11" x1="0" y1="0" x2="1" y2="0" gradientUnits="userSpaceOnUse" gradientTransform="matrix(80.2678,0,0,80.2678,-0.0240944,19.7909)"><stop offset="0" style="stop-color:rgb(238,64,54);stop-opacity:1"/><stop offset="1" style="stop-color:rgb(176,34,38);stop-opacity:1"/></linearGradient>
        <linearGradient id="_Linear12" x1="0" y1="0" x2="1" y2="0" gradientUnits="userSpaceOnUse" gradientTransform="matrix(80.2678,0,0,80.2678,-0.0642283,6.85972)"><stop offset="0" style="stop-color:rgb(238,64,54);stop-opacity:1"/><stop offset="1" style="stop-color:rgb(176,34,38);stop-opacity:1"/></linearGradient>
        <linearGradient id="_Linear13" x1="0" y1="0" x2="1" y2="0" gradientUnits="userSpaceOnUse" gradientTransform="matrix(80.2678,0,0,80.2678,-0.0240944,17.8323)"><stop offset="0" style="stop-color:rgb(238,64,54);stop-opacity:1"/><stop offset="1" style="stop-color:rgb(176,34,38);stop-opacity:1"/></linearGradient>
        <linearGradient id="_Linear14" x1="0" y1="0" x2="1" y2="0" gradientUnits="userSpaceOnUse" gradientTransform="matrix(80.2678,0,0,80.2678,-0.0240944,30.5307)"><stop offset="0" style="stop-color:rgb(238,64,54);stop-opacity:1"/><stop offset="1" style="stop-color:rgb(176,34,38);stop-opacity:1"/></linearGradient>
        <linearGradient id="_Linear15" x1="0" y1="0" x2="1" y2="0" gradientUnits="userSpaceOnUse" gradientTransform="matrix(2e-06,0,0,2e-06,0.0561734,49.6585)"><stop offset="0" style="stop-color:rgb(238,64,54);stop-opacity:1"/><stop offset="1" style="stop-color:rgb(176,34,38);stop-opacity:1"/></linearGradient>
        <linearGradient id="_Linear16" x1="0" y1="0" x2="1" y2="0" gradientUnits="userSpaceOnUse" gradientTransform="matrix(80.2678,0,0,80.2678,-0.0240944,47.5394)"><stop offset="0" style="stop-color:rgb(238,64,54);stop-opacity:1"/><stop offset="1" style="stop-color:rgb(176,34,38);stop-opacity:1"/></linearGradient>
        <linearGradient id="_Linear17" x1="0" y1="0" x2="1" y2="0" gradientUnits="userSpaceOnUse" gradientTransform="matrix(82.0979,0,0,82.0979,-1.83012,15.7935)"><stop offset="0" style="stop-color:rgb(238,64,54);stop-opacity:1"/><stop offset="1" style="stop-color:rgb(176,34,38);stop-opacity:1"/></linearGradient>
        <linearGradient id="_Linear18" x1="0" y1="0" x2="1" y2="0" gradientUnits="userSpaceOnUse" gradientTransform="matrix(80.2678,0,0,80.2678,-0.0240944,24.8076)"><stop offset="0" style="stop-color:rgb(238,64,54);stop-opacity:1"/><stop offset="1" style="stop-color:rgb(176,34,38);stop-opacity:1"/></linearGradient>
        <linearGradient id="_Linear20" x1="0" y1="0" x2="1" y2="0" gradientUnits="userSpaceOnUse" gradientTransform="matrix(40.1292,0,0,40.1292,23.5127,64.1285)"><stop offset="0" style="stop-color:rgb(176,34,38);stop-opacity:1"/><stop offset="1" style="stop-color:rgb(238,64,54);stop-opacity:1"/></linearGradient>
    </defs>
</svg>
